<svg width="16" height="16" viewBox="0 0 16 16" fill="none" xmlns="http://www.w3.org/2000/svg">
<path d="M9 13L8 14L3.33334 9.33333C2.33334 8.36667 1.33334 7.2 1.33334 5.66667C1.33334 4.69421 1.71964 3.76158 2.40728 3.07394C3.09491 2.38631 4.02754 2 5 2C6.17334 2 7 2.33333 8 3.33333C9 2.33333 9.82667 2 11 2C11.5376 2.00062 12.0686 2.11946 12.5551 2.3481C13.0417 2.57675 13.4721 2.9096 13.8157 3.32308C14.1594 3.73656 14.4079 4.22055 14.5436 4.74075C14.6794 5.26096 14.6991 5.80466 14.6013 6.33333" stroke="#09090B" stroke-width="1.25" stroke-linecap="round" stroke-linejoin="round"/>
<path d="M10 10H14" stroke="#09090B" stroke-width="1.25" stroke-linecap="round" stroke-linejoin="round"/>
<path d="M12 8V12" stroke="#09090B" stroke-width="1.25" stroke-linecap="round" stroke-linejoin="round"/>
</svg>
