<svg width="52" height="52" viewBox="0 0 52 52" fill="none" xmlns="http://www.w3.org/2000/svg">
<path d="M42.7779 27.8057C42.7779 38.5001 35.2918 43.8474 26.394 46.9488C25.9281 47.1067 25.4219 47.0991 24.9609 46.9274C16.0417 43.8474 8.5556 38.5001 8.5556 27.8057V12.8334C8.5556 12.2661 8.78095 11.7221 9.18207 11.321C9.58319 10.9199 10.1272 10.6945 10.6945 10.6945C14.9723 10.6945 20.3195 8.12783 24.0412 4.87671C24.4943 4.48957 25.0708 4.27686 25.6668 4.27686C26.2628 4.27686 26.8392 4.48957 27.2923 4.87671C31.0354 8.14922 36.3612 10.6945 40.639 10.6945C41.2063 10.6945 41.7503 10.9199 42.1515 11.321C42.5526 11.7221 42.7779 12.2661 42.7779 12.8334V27.8057Z" stroke="white" stroke-width="3.20834" stroke-linecap="round" stroke-linejoin="round"/>
<path d="M19.3334 23.4058C18.8913 23.4058 18.4674 23.5814 18.1548 23.894C17.8423 24.2066 17.6667 24.6305 17.6667 25.0725V26.7392C17.6667 27.1812 17.8423 27.6051 18.1548 27.9177C18.4674 28.2302 18.8913 28.4058 19.3334 28.4058H22.6667C22.8877 28.4058 23.0997 28.4936 23.2559 28.6499C23.4122 28.8062 23.5 29.0182 23.5 29.2392V32.5725C23.5 33.0145 23.6756 33.4385 23.9882 33.751C24.3007 34.0636 24.7247 34.2392 25.1667 34.2392H26.8334C27.2754 34.2392 27.6993 34.0636 28.0119 33.751C28.3244 33.4385 28.5 33.0145 28.5 32.5725V29.2392C28.5 29.0182 28.5878 28.8062 28.7441 28.6499C28.9004 28.4936 29.1123 28.4058 29.3334 28.4058H32.6667C33.1087 28.4058 33.5326 28.2302 33.8452 27.9177C34.1578 27.6051 34.3334 27.1812 34.3334 26.7392V25.0725C34.3334 24.6305 34.1578 24.2066 33.8452 23.894C33.5326 23.5814 33.1087 23.4058 32.6667 23.4058H29.3334C29.1123 23.4058 28.9004 23.318 28.7441 23.1618C28.5878 23.0055 28.5 22.7935 28.5 22.5725V19.2392C28.5 18.7971 28.3244 18.3732 28.0119 18.0607C27.6993 17.7481 27.2754 17.5725 26.8334 17.5725H25.1667C24.7247 17.5725 24.3007 17.7481 23.9882 18.0607C23.6756 18.3732 23.5 18.7971 23.5 19.2392V22.5725C23.5 22.7935 23.4122 23.0055 23.2559 23.1618C23.0997 23.318 22.8877 23.4058 22.6667 23.4058H19.3334Z" stroke="white" stroke-width="1.5" stroke-linecap="round" stroke-linejoin="round"/>
</svg>
