<svg width="19" height="18" viewBox="0 0 19 18" fill="none" xmlns="http://www.w3.org/2000/svg">
<path d="M0 2.07998C0 1.46665 0.206667 0.966648 0.62 0.579981C1.03333 0.193314 1.58667 -1.90735e-05 2.28 -1.90735e-05C2.97333 -1.90735e-05 3.52667 0.196648 3.94 0.589981C4.35333 0.983315 4.56 1.49998 4.56 2.13998C4.56 2.71331 4.34667 3.19665 3.92 3.58998C3.49333 3.98331 2.94 4.17998 2.26 4.17998H2.24C1.56 4.17998 1.01667 3.97998 0.61 3.57998C0.203333 3.17998 0 2.67998 0 2.07998ZM0.24 17.98V5.83998H4.28V17.98H0.24ZM6.52 17.98H10.58V11.2C10.58 10.7733 10.6267 10.4466 10.72 10.22C10.88 9.80665 11.14 9.45665 11.5 9.16998C11.86 8.88331 12.2933 8.73998 12.8 8.73998C14.16 8.73998 14.84 9.65998 14.84 11.5V17.98H18.88V11.02C18.88 9.20665 18.4567 7.84331 17.61 6.92998C16.7633 6.01665 15.64 5.55998 14.24 5.55998C12.6533 5.55998 11.4333 6.22665 10.58 7.55998V7.59998H10.56L10.58 7.55998V5.83998H6.52C6.54667 6.34665 6.56 7.55331 6.56 9.45998C6.56 10.4866 6.55333 12.5066 6.54 15.52L6.52 17.98Z" fill="white"/>
</svg>
