<svg width="52" height="52" viewBox="0 0 52 52" fill="none" xmlns="http://www.w3.org/2000/svg">
<path d="M42.7779 27.8057C42.7779 38.5001 35.2918 43.8474 26.394 46.9488C25.928 47.1067 25.4219 47.0991 24.9609 46.9274C16.0417 43.8474 8.55558 38.5001 8.55558 27.8057V12.8334C8.55558 12.2661 8.78093 11.7221 9.18205 11.321C9.58317 10.9199 10.1272 10.6945 10.6945 10.6945C14.9723 10.6945 20.3195 8.12783 24.0412 4.87671C24.4943 4.48957 25.0708 4.27686 25.6667 4.27686C26.2627 4.27686 26.8392 4.48957 27.2923 4.87671C31.0354 8.14922 36.3612 10.6945 40.639 10.6945C41.2063 10.6945 41.7503 10.9199 42.1514 11.321C42.5526 11.7221 42.7779 12.2661 42.7779 12.8334V27.8057Z" stroke="white" stroke-width="3.20834" stroke-linecap="round" stroke-linejoin="round"/>
<path d="M19.2501 25.6667L23.5279 29.9445L32.0834 21.3889" stroke="white" stroke-width="3.20834" stroke-linecap="round" stroke-linejoin="round"/>
</svg>
