<svg width="11" height="18" viewBox="0 0 11 18" fill="none" xmlns="http://www.w3.org/2000/svg">
<path d="M6.76 17.7598V9.65977H9.84L10.3 6.49977H6.76V4.47977C6.76 3.9731 6.87333 3.59977 7.1 3.35977C7.36667 3.07977 7.84667 2.93977 8.54 2.93977H10.42V0.119766C10.2067 0.0930996 9.87333 0.066433 9.42 0.0397663C8.83333 0.0130997 8.24667 -0.000234604 7.66 -0.000234604C6.75333 -0.000234604 5.95333 0.159765 5.26 0.479767C4.56667 0.799767 4.03 1.2731 3.65 1.89977C3.27 2.52643 3.08 3.27977 3.08 4.15977V6.49977H0V9.65977H3.08V17.7598H6.76Z" fill="white"/>
</svg>
