<svg width="14" height="14" viewBox="0 0 14 14" fill="none" xmlns="http://www.w3.org/2000/svg">
<path d="M6.72283 1.33874C6.74839 1.28709 6.78788 1.24362 6.83684 1.21322C6.8858 1.18282 6.94228 1.16672 6.99991 1.16672C7.05754 1.16672 7.11402 1.18282 7.16298 1.21322C7.21194 1.24362 7.25143 1.28709 7.27699 1.33874L8.62449 4.06816C8.71326 4.2478 8.8443 4.40323 9.00636 4.52109C9.16842 4.63895 9.35665 4.71572 9.55491 4.74482L12.5684 5.18582C12.6255 5.1941 12.6792 5.21818 12.7233 5.25535C12.7674 5.29253 12.8002 5.34131 12.8181 5.39618C12.8359 5.45104 12.8381 5.50981 12.8243 5.56583C12.8104 5.62184 12.7812 5.67288 12.7399 5.71316L10.5606 7.83532C10.4169 7.97538 10.3093 8.14827 10.2472 8.33911C10.1851 8.52994 10.1704 8.73301 10.2042 8.93082L10.7187 11.9292C10.7287 11.9862 10.7226 12.045 10.7009 12.0987C10.6792 12.1525 10.6428 12.199 10.5959 12.2331C10.549 12.2671 10.4935 12.2873 10.4357 12.2913C10.3778 12.2954 10.3201 12.2831 10.2689 12.2558L7.57508 10.8395C7.39758 10.7463 7.2001 10.6976 6.99962 10.6976C6.79914 10.6976 6.60166 10.7463 6.42416 10.8395L3.73091 12.2558C3.67977 12.2829 3.62206 12.2951 3.56434 12.291C3.50662 12.2869 3.45121 12.2666 3.40442 12.2326C3.35762 12.1986 3.32131 12.1521 3.29963 12.0985C3.27794 12.0448 3.27174 11.9861 3.28174 11.9292L3.79566 8.93141C3.82961 8.7335 3.8149 8.5303 3.75281 8.33935C3.69071 8.14839 3.5831 7.97541 3.43924 7.83532L1.25991 5.71374C1.21826 5.67351 1.18874 5.62239 1.17472 5.5662C1.1607 5.51001 1.16275 5.45102 1.18062 5.39593C1.1985 5.34085 1.23148 5.2919 1.27582 5.25465C1.32016 5.21739 1.37407 5.19335 1.43141 5.18524L4.44433 4.74482C4.64281 4.71595 4.8313 4.63927 4.99358 4.5214C5.15586 4.40352 5.28707 4.24798 5.37591 4.06816L6.72283 1.33874Z" fill="#2563EB" stroke="#2563EB" stroke-linecap="round" stroke-linejoin="round"/>
</svg>
