<svg width="19" height="19" viewBox="0 0 19 19" fill="none" xmlns="http://www.w3.org/2000/svg">
<path d="M5.58 -5.91278e-05C4.56667 -5.91278e-05 3.62667 0.253273 2.76 0.759941C1.92 1.25327 1.25333 1.91994 0.76 2.75994C0.253333 3.62661 0 4.56661 0 5.57994V12.8599C0 13.8733 0.253333 14.8133 0.76 15.6799C1.25333 16.5199 1.92 17.1866 2.76 17.6799C3.62667 18.1866 4.56667 18.4399 5.58 18.4399H12.86C13.8733 18.4399 14.8133 18.1866 15.68 17.6799C16.52 17.1866 17.1867 16.5199 17.68 15.6799C18.1867 14.8133 18.44 13.8733 18.44 12.8599V5.57994C18.44 4.56661 18.1867 3.62661 17.68 2.75994C17.1867 1.91994 16.52 1.25327 15.68 0.759941C14.8133 0.253273 13.8733 -5.91278e-05 12.86 -5.91278e-05H5.58ZM14.08 3.39994C14.3467 3.39994 14.5733 3.49327 14.76 3.67994C14.9467 3.86661 15.04 4.09327 15.04 4.35994C15.04 4.62661 14.9467 4.85661 14.76 5.04994C14.5733 5.24327 14.3467 5.33994 14.08 5.33994C13.8133 5.33994 13.5833 5.24327 13.39 5.04994C13.1967 4.85661 13.1 4.62661 13.1 4.35994C13.1 4.09327 13.1967 3.86661 13.39 3.67994C13.5833 3.49327 13.8133 3.39994 14.08 3.39994ZM9.22 4.35994C10.1 4.35994 10.9133 4.57661 11.66 5.00994C12.4067 5.44327 12.9967 6.03327 13.43 6.77994C13.8633 7.52661 14.08 8.33994 14.08 9.21994C14.08 10.0999 13.8633 10.9099 13.43 11.6499C12.9967 12.3899 12.4067 12.9766 11.66 13.4099C10.9133 13.8433 10.1 14.0599 9.22 14.0599C8.34 14.0599 7.53 13.8433 6.79 13.4099C6.05 12.9766 5.46333 12.3899 5.03 11.6499C4.59667 10.9099 4.38 10.0999 4.38 9.21994C4.38 8.33994 4.59667 7.52661 5.03 6.77994C5.46333 6.03327 6.05 5.44327 6.79 5.00994C7.53 4.57661 8.34 4.35994 9.22 4.35994ZM9.22 5.81994C8.80667 5.81994 8.37333 5.90661 7.92 6.07994C7.48 6.27994 7.11 6.52994 6.81 6.82994C6.51 7.12994 6.26667 7.49327 6.08 7.91994C5.90667 8.37327 5.82 8.80661 5.82 9.21994C5.82 9.63327 5.90667 10.0666 6.08 10.5199C6.28 10.9599 6.52667 11.3266 6.82 11.6199C7.11333 11.9133 7.48 12.1599 7.92 12.3599C8.37333 12.5333 8.80667 12.6199 9.22 12.6199C9.63333 12.6199 10.0667 12.5333 10.52 12.3599C10.9467 12.1733 11.31 11.9299 11.61 11.6299C11.91 11.3299 12.16 10.9599 12.36 10.5199C12.5333 10.0666 12.62 9.63327 12.62 9.21994C12.62 8.80661 12.5333 8.37327 12.36 7.91994C12.1867 7.49327 11.9433 7.12327 11.63 6.80994C11.3167 6.49661 10.9467 6.25327 10.52 6.07994C10.0667 5.90661 9.63333 5.81994 9.22 5.81994Z" fill="white"/>
</svg>
