<svg width="17" height="17" viewBox="0 0 17 17" fill="none" xmlns="http://www.w3.org/2000/svg">
<path d="M0 2.8C0 1.2536 1.2536 0 2.8 0H14C15.5464 0 16.8 1.2536 16.8 2.8V14C16.8 15.5464 15.5464 16.8 14 16.8H2.8C1.2536 16.8 0 15.5464 0 14V2.8Z" fill="#2563EB"/>
<path fill-rule="evenodd" clip-rule="evenodd" d="M11.7631 5.22846C11.9681 5.02392 12.3004 5.02364 12.5053 5.22846C12.7101 5.43334 12.7098 5.76561 12.5053 5.97065L7.37147 11.1044C7.16643 11.3091 6.83418 11.3093 6.62928 11.1044L4.29627 8.77046C4.0914 8.56542 4.0913 8.23324 4.29627 8.02827C4.50129 7.82379 4.83359 7.82356 5.03846 8.02827L7.00037 9.99018L11.7631 5.22846Z" fill="#FAFAFA"/>
</svg>
