<svg width="17" height="17" viewBox="0 0 17 17" fill="none" xmlns="http://www.w3.org/2000/svg">
<path d="M0 2.8C0 1.2536 1.2536 0 2.8 0H14C15.5464 0 16.8 1.2536 16.8 2.8V14C16.8 15.5464 15.5464 16.8 14 16.8H2.8C1.2536 16.8 0 15.5464 0 14V2.8Z" fill="#F5F5F5"/>
<path d="M10.8286 5.22889C11.0336 5.02387 11.3667 5.02389 11.5717 5.22889C11.7764 5.43385 11.7764 5.76613 11.5717 5.97108L9.14204 8.39979L11.5717 10.8285C11.7767 11.0335 11.7767 11.3667 11.5717 11.5717C11.3667 11.7767 11.0336 11.7766 10.8286 11.5717L8.39985 9.14198L5.97114 11.5717C5.76619 11.7763 5.43391 11.7763 5.22896 11.5717C5.02395 11.3666 5.02394 11.0335 5.22896 10.8285L7.65669 8.39979L5.22896 5.97108C5.02395 5.76605 5.02394 5.43391 5.22896 5.22889C5.43397 5.02387 5.76612 5.02389 5.97114 5.22889L8.39985 7.65663L10.8286 5.22889Z" fill="#171717"/>
</svg>
