<svg width="52" height="52" viewBox="0 0 52 52" fill="none" xmlns="http://www.w3.org/2000/svg">
<path d="M25.9058 36.7C27.098 36.7 28.0646 35.7334 28.0646 34.5411C28.0646 33.3489 27.098 32.3823 25.9058 32.3823C24.7135 32.3823 23.7469 33.3489 23.7469 34.5411C23.7469 35.7334 24.7135 36.7 25.9058 36.7Z" stroke="white" stroke-width="3.20834" stroke-linecap="round" stroke-linejoin="round"/>
<path d="M41.0175 21.5881H10.7941C8.40951 21.5881 6.47644 23.5212 6.47644 25.9058V43.1763C6.47644 45.5608 8.40951 47.4939 10.7941 47.4939H41.0175C43.402 47.4939 45.3351 45.5608 45.3351 43.1763V25.9058C45.3351 23.5212 43.402 21.5881 41.0175 21.5881Z" stroke="white" stroke-width="3.20834" stroke-linecap="round" stroke-linejoin="round"/>
<path d="M15.1117 21.5881V15.1117C15.1117 12.2489 16.2489 9.50342 18.2732 7.47914C20.2975 5.45486 23.043 4.31763 25.9058 4.31763C28.7685 4.31763 31.514 5.45486 33.5383 7.47914C35.5626 9.50342 36.6998 12.2489 36.6998 15.1117V21.5881" stroke="white" stroke-width="3.20834" stroke-linecap="round" stroke-linejoin="round"/>
</svg>
