<svg width="142" height="41" viewBox="0 0 142 41" fill="none" xmlns="http://www.w3.org/2000/svg">
<path d="M114.477 32.6541C114.23 32.6541 114.029 32.4518 114.029 32.2023V28.5544C114.029 28.3049 114.23 28.1026 114.477 28.1026H118.131C118.379 28.1026 118.58 28.3049 118.58 28.5544V32.2023C118.58 32.4518 118.379 32.6541 118.131 32.6541H114.477Z" fill="#0B0B0B"/>
<path d="M97.6781 32.654C97.4301 32.654 97.2291 32.4518 97.2291 32.2023V29.8431C97.2291 29.7188 97.28 29.6 97.3698 29.5147L104.91 22.3489C105.517 21.7955 105.962 21.2993 106.247 20.8604C106.531 20.4215 106.721 20.0207 106.816 19.6581C106.929 19.2956 106.986 18.9616 106.986 18.6563C106.986 17.8547 106.711 17.2441 106.161 16.8242C105.63 16.3853 104.843 16.1658 103.8 16.1658C102.966 16.1658 102.188 16.3281 101.468 16.6525C100.886 16.9213 100.376 17.3147 99.9381 17.8326C99.7833 18.0154 99.5183 18.0677 99.3177 17.9377L96.7023 16.2426C96.4915 16.106 96.4316 15.8212 96.5835 15.6204C97.3177 14.6501 98.2914 13.8682 99.5048 13.2747C100.87 12.6068 102.444 12.2728 104.227 12.2728C105.706 12.2728 106.996 12.5209 108.096 13.0171C109.215 13.4941 110.078 14.1716 110.684 15.0495C111.31 15.9273 111.623 16.9769 111.623 18.1982C111.623 18.8471 111.538 19.4959 111.367 20.1448C111.215 20.7745 110.893 21.4425 110.4 22.1485C109.926 22.8546 109.224 23.6466 108.295 24.5244L102.353 30.1565C102.137 30.3615 101.786 30.3024 101.648 30.0378L101.387 29.5374C101.229 29.2366 101.446 28.8755 101.784 28.8755H111.828C112.076 28.8755 112.277 29.0778 112.277 29.3273V32.2023C112.277 32.4518 112.076 32.654 111.828 32.654H97.6781Z" fill="#0B0B0B"/>
<path d="M83.6966 32.6541C83.5174 32.6541 83.3554 32.5469 83.2844 32.3813L75.0809 13.2471C74.953 12.9489 75.1703 12.6164 75.4931 12.6164H79.4918C79.6718 12.6164 79.8344 12.7245 79.9049 12.8911L87.0325 29.7353C87.1586 30.0333 86.9413 30.3641 86.6194 30.3641H85.0517C84.7288 30.3641 84.5115 30.0313 84.6396 29.7331L91.8752 12.8889C91.9463 12.7235 92.1082 12.6164 92.2873 12.6164H95.8886C96.2116 12.6164 96.429 12.9493 96.3006 13.2476L88.07 32.3818C87.9989 32.5471 87.837 32.6541 87.658 32.6541H83.6966Z" fill="#0B0B0B"/>
<path d="M61.5626 32.654C61.3146 32.654 61.1136 32.4518 61.1136 32.2023V29.8431C61.1136 29.7188 61.1645 29.6 61.2543 29.5147L68.7942 22.3489C69.4011 21.7955 69.8467 21.2993 70.1312 20.8604C70.4157 20.4215 70.6053 20.0207 70.7001 19.6581C70.8139 19.2956 70.8708 18.9616 70.8708 18.6563C70.8708 17.8547 70.5958 17.2441 70.0459 16.8242C69.5149 16.3853 68.7278 16.1658 67.6848 16.1658C66.8504 16.1658 66.0728 16.3281 65.3522 16.6525C64.7707 16.9213 64.2608 17.3147 63.8226 17.8326C63.6678 18.0154 63.4028 18.0677 63.2022 17.9377L60.5868 16.2426C60.376 16.106 60.3162 15.8212 60.468 15.6204C61.2022 14.6501 62.176 13.8682 63.3893 13.2747C64.7548 12.6068 66.3288 12.2728 68.1115 12.2728C69.5907 12.2728 70.8803 12.5209 71.9802 13.0171C73.0991 13.4941 73.962 14.1716 74.5689 15.0495C75.1947 15.9273 75.5076 16.9769 75.5076 18.1982C75.5076 18.8471 75.4223 19.4959 75.2516 20.1448C75.0999 20.7745 74.7775 21.4425 74.2844 22.1485C73.8103 22.8546 73.1086 23.6466 72.1794 24.5244L66.2376 30.1565C66.0214 30.3615 65.6705 30.3024 65.5324 30.0378L65.2711 29.5374C65.114 29.2366 65.3308 28.8755 65.6685 28.8755H75.713C75.9609 28.8755 76.1619 29.0778 76.1619 29.3273V32.2023C76.1619 32.4518 75.9609 32.654 75.713 32.654H61.5626Z" fill="#0B0B0B"/>
<path d="M126.466 16.452C127.585 16.452 128.561 16.6811 129.396 17.1391C129.734 17.3203 130.04 17.5241 130.316 17.7502C130.666 18.0381 131.359 17.8018 131.359 17.3463V17.1328C131.359 16.8833 131.56 16.6811 131.808 16.6811H135.774C136.022 16.6811 136.223 16.8833 136.223 17.1328V17.8403L130.778 22.3472C130.651 22.1412 130.503 21.9509 130.335 21.7764C129.671 21.0703 128.855 20.7172 127.888 20.7172C126.921 20.7172 126.096 21.0703 125.413 21.7764C124.75 22.4634 124.418 23.4176 124.418 24.6389C124.418 25.8602 124.75 26.8335 125.413 27.5587C126.096 28.2648 126.921 28.6179 127.888 28.6179C128.855 28.6179 129.671 28.2648 130.335 27.5587C131.017 26.8526 131.359 25.8889 131.359 24.6675C131.359 23.7736 131.176 23.0178 130.81 22.3999L136.223 20.794V32.2022C136.223 32.4517 136.022 32.654 135.774 32.654H131.808C131.56 32.654 131.359 32.4517 131.359 32.2022V31.9345C131.359 31.4833 130.69 31.2528 130.345 31.5407C130.053 31.7846 129.727 32.003 129.367 32.196C128.533 32.654 127.556 32.883 126.437 32.883C125.148 32.883 123.972 32.549 122.91 31.8811C121.848 31.1941 121.004 30.2304 120.378 28.99C119.771 27.7304 119.468 26.2801 119.468 24.6389C119.468 22.9977 119.771 21.5569 120.378 20.3165C121.004 19.0761 121.848 18.1219 122.91 17.454C123.972 16.7861 125.157 16.452 126.466 16.452Z" fill="#0B0B0B"/>
<path d="M141.972 32.2023C141.972 32.4518 141.771 32.654 141.523 32.654H138.452C138.204 32.654 138.003 32.4517 138.003 32.2023V20.266L141.972 19.0888V32.2023Z" fill="#0B0B0B"/>
<path d="M141.551 11.9722C141.799 11.9722 142 12.1745 142 12.424V12.4677L138.15 15.6533C138.035 15.5714 137.961 15.4369 137.961 15.2847V12.424C137.961 12.1745 138.162 11.9722 138.41 11.9722H141.551Z" fill="#0B0B0B"/>
<path d="M51.8154 12.5955C51.9946 12.5955 52.1567 12.7027 52.2277 12.8683L60.4312 32.0025C60.559 32.3007 60.3417 32.6333 60.019 32.6333H56.0202C55.8402 32.6333 55.6777 32.5251 55.6072 32.3585L48.4796 15.5143C48.3535 15.2163 48.5708 14.8855 48.8926 14.8855H50.4603C50.7833 14.8855 51.0006 15.2183 50.8724 15.5166L43.6369 32.3607C43.5658 32.5261 43.4038 32.6332 43.2248 32.6332H39.6234C39.3004 32.6332 39.0831 32.3003 39.2114 32.002L47.4421 12.8678C47.5132 12.7025 47.6751 12.5955 47.8541 12.5955H51.8154Z" fill="#0B0B0B"/>
<path fill-rule="evenodd" clip-rule="evenodd" d="M14.3971 1.05184C16.8111 -0.350613 19.7853 -0.350613 22.1992 1.05184L32.6953 7.14985C35.1093 8.5523 36.5964 11.1441 36.5964 13.949V26.1451C36.5964 28.95 35.1093 31.5418 32.6953 32.9443L22.1992 39.0423C19.7853 40.4447 16.8111 40.4447 14.3971 39.0423L3.90104 32.9443C1.48709 31.5418 6.96965e-06 28.95 0 26.1451V13.949C1.42306e-05 11.1441 1.48709 8.5523 3.90104 7.14985L14.3971 1.05184ZM10.1471 12.1934C9.77849 12.1934 9.55617 12.604 9.75602 12.9156L17.7108 25.3197C17.7965 25.4533 17.9438 25.5341 18.1019 25.5341H20.2517C20.6231 25.534 20.8449 25.1177 20.6393 24.8064L12.4438 12.4024C12.3575 12.2719 12.2121 12.1934 12.0563 12.1934H10.1471ZM11.7472 18.8629C11.5633 18.5824 11.1542 18.5824 10.9702 18.8629L7.07282 24.8078C6.8687 25.1192 7.09063 25.534 7.46131 25.534H9.55632C9.71549 25.5339 9.86359 25.4521 9.94899 25.3169L12.7464 20.8897C12.8448 20.7339 12.8431 20.5346 12.7421 20.3805L11.7472 18.8629ZM15.8629 12.1793C15.4943 12.1793 15.272 12.5899 15.4718 12.9016L23.4266 25.3056C23.5123 25.4392 23.6596 25.52 23.8177 25.52H25.9675C26.3389 25.52 26.5607 25.1036 26.3551 24.7923L18.1596 12.3883C18.0733 12.2578 17.9279 12.1793 17.7721 12.1793H15.8629ZM29.6075 16.0321C29.4387 16.0099 29.2713 16.0822 29.1711 16.2207L25.8621 20.7923C25.7468 20.9517 25.743 21.1666 25.8525 21.33L26.8453 22.8107C27.0265 23.0809 27.4199 23.0868 27.609 22.822L31.7575 17.0106C31.9627 16.7229 31.7887 16.3189 31.4398 16.273L29.6075 16.0321Z" fill="#0B0B0B"/>
</svg>
